<mxfile host="app.diagrams.net" modified="2022-01-14T01:34:04.166Z" agent="5.0 (Windows NT 10.0; Win64; x64) AppleWebKit/537.36 (KHTML, like Gecko) Chrome/97.0.4692.71 Safari/537.36" etag="mNZF0r-Snt65j6xlBYHi" version="16.2.4" type="github">
  <diagram name="Page-1" id="2a216829-ef6e-dabb-86c1-c78162f3ba2b">
    <mxGraphModel dx="2062" dy="1122" grid="1" gridSize="10" guides="1" tooltips="1" connect="1" arrows="1" fold="1" page="1" pageScale="1" pageWidth="850" pageHeight="1100" background="none" math="0" shadow="0">
      <root>
        <mxCell id="0" />
        <mxCell id="1" parent="0" />
        <mxCell id="7a84cebc1def654-2" value="业务系统" style="shape=ext;rounded=1;html=1;whiteSpace=wrap;" parent="1" vertex="1">
          <mxGeometry x="80" y="140" width="120" height="80" as="geometry" />
        </mxCell>
        <mxCell id="2uTV4ddxleHJS4eFF3Lr-6" style="edgeStyle=orthogonalEdgeStyle;rounded=0;orthogonalLoop=1;jettySize=auto;html=1;fontSize=14;" parent="1" source="7a84cebc1def654-3" target="7a84cebc1def654-8" edge="1">
          <mxGeometry relative="1" as="geometry" />
        </mxCell>
        <mxCell id="7a84cebc1def654-3" value="招行扫码" style="shape=ext;rounded=1;html=1;whiteSpace=wrap;" parent="1" vertex="1">
          <mxGeometry x="320" y="140" width="120" height="80" as="geometry" />
        </mxCell>
        <mxCell id="2uTV4ddxleHJS4eFF3Lr-17" style="edgeStyle=orthogonalEdgeStyle;rounded=0;orthogonalLoop=1;jettySize=auto;html=1;fontSize=14;" parent="1" source="7a84cebc1def654-8" target="2uTV4ddxleHJS4eFF3Lr-16" edge="1">
          <mxGeometry relative="1" as="geometry" />
        </mxCell>
        <mxCell id="7a84cebc1def654-8" value="检测币&lt;br&gt;（不允许转账）" style="shape=ext;rounded=1;html=1;whiteSpace=wrap;" parent="1" vertex="1">
          <mxGeometry x="550" y="140" width="120" height="80" as="geometry" />
        </mxCell>
        <mxCell id="7a84cebc1def654-39" style="edgeStyle=orthogonalEdgeStyle;rounded=0;html=1;jettySize=auto;orthogonalLoop=1;" parent="1" source="7a84cebc1def654-2" target="7a84cebc1def654-3" edge="1">
          <mxGeometry relative="1" as="geometry" />
        </mxCell>
        <mxCell id="2uTV4ddxleHJS4eFF3Lr-2" value="初始化" style="text;html=1;resizable=0;autosize=1;align=center;verticalAlign=middle;points=[];fillColor=none;strokeColor=none;rounded=0;" parent="1" vertex="1">
          <mxGeometry x="220" y="150" width="50" height="20" as="geometry" />
        </mxCell>
        <mxCell id="2uTV4ddxleHJS4eFF3Lr-5" value="&lt;font style=&quot;font-size: 14px&quot;&gt;设置原路退回天数&lt;/font&gt;" style="text;html=1;resizable=0;autosize=1;align=center;verticalAlign=middle;points=[];fillColor=none;strokeColor=none;rounded=0;" parent="1" vertex="1">
          <mxGeometry x="320" y="110" width="130" height="20" as="geometry" />
        </mxCell>
        <mxCell id="2uTV4ddxleHJS4eFF3Lr-12" value="充值" style="text;html=1;resizable=0;autosize=1;align=center;verticalAlign=middle;points=[];fillColor=none;strokeColor=none;rounded=0;fontSize=14;" parent="1" vertex="1">
          <mxGeometry x="470" y="150" width="40" height="20" as="geometry" />
        </mxCell>
        <mxCell id="2uTV4ddxleHJS4eFF3Lr-14" value="发起退款" style="text;html=1;resizable=0;autosize=1;align=center;verticalAlign=middle;points=[];fillColor=none;strokeColor=none;rounded=0;fontSize=14;" parent="1" vertex="1">
          <mxGeometry x="612.5" y="240" width="70" height="20" as="geometry" />
        </mxCell>
        <mxCell id="2uTV4ddxleHJS4eFF3Lr-19" style="edgeStyle=orthogonalEdgeStyle;rounded=0;orthogonalLoop=1;jettySize=auto;html=1;fontSize=14;" parent="1" source="2uTV4ddxleHJS4eFF3Lr-16" edge="1">
          <mxGeometry relative="1" as="geometry">
            <mxPoint x="445" y="330" as="targetPoint" />
          </mxGeometry>
        </mxCell>
        <mxCell id="2uTV4ddxleHJS4eFF3Lr-29" style="edgeStyle=orthogonalEdgeStyle;rounded=0;orthogonalLoop=1;jettySize=auto;html=1;entryX=0.5;entryY=0;entryDx=0;entryDy=0;fontSize=14;" parent="1" source="2uTV4ddxleHJS4eFF3Lr-16" target="2uTV4ddxleHJS4eFF3Lr-28" edge="1">
          <mxGeometry relative="1" as="geometry" />
        </mxCell>
        <mxCell id="2uTV4ddxleHJS4eFF3Lr-16" value="是否设置&lt;br&gt;退回天数" style="rhombus;whiteSpace=wrap;html=1;fontSize=14;" parent="1" vertex="1">
          <mxGeometry x="545" y="290" width="130" height="80" as="geometry" />
        </mxCell>
        <mxCell id="2uTV4ddxleHJS4eFF3Lr-20" value="未设置" style="text;html=1;resizable=0;autosize=1;align=center;verticalAlign=middle;points=[];fillColor=none;strokeColor=none;rounded=0;fontSize=14;" parent="1" vertex="1">
          <mxGeometry x="460" y="300" width="60" height="20" as="geometry" />
        </mxCell>
        <mxCell id="2uTV4ddxleHJS4eFF3Lr-24" style="edgeStyle=orthogonalEdgeStyle;rounded=0;orthogonalLoop=1;jettySize=auto;html=1;fontSize=14;" parent="1" source="2uTV4ddxleHJS4eFF3Lr-21" target="2uTV4ddxleHJS4eFF3Lr-23" edge="1">
          <mxGeometry relative="1" as="geometry" />
        </mxCell>
        <mxCell id="2uTV4ddxleHJS4eFF3Lr-26" style="edgeStyle=orthogonalEdgeStyle;rounded=0;orthogonalLoop=1;jettySize=auto;html=1;entryX=0.5;entryY=0;entryDx=0;entryDy=0;fontSize=14;" parent="1" source="2uTV4ddxleHJS4eFF3Lr-21" target="2uTV4ddxleHJS4eFF3Lr-22" edge="1">
          <mxGeometry relative="1" as="geometry" />
        </mxCell>
        <mxCell id="2uTV4ddxleHJS4eFF3Lr-21" value="&lt;span style=&quot;font-size: 12px&quot;&gt;银行一年内订单&lt;br&gt;允许原路退回&lt;/span&gt;" style="rhombus;whiteSpace=wrap;html=1;fontSize=14;" parent="1" vertex="1">
          <mxGeometry x="320" y="280" width="130" height="100" as="geometry" />
        </mxCell>
        <mxCell id="2uTV4ddxleHJS4eFF3Lr-22" value="检测币作废，需要检测机构和用户协商退款" style="shape=ext;rounded=1;html=1;whiteSpace=wrap;" parent="1" vertex="1">
          <mxGeometry x="325" y="450" width="120" height="80" as="geometry" />
        </mxCell>
        <mxCell id="2uTV4ddxleHJS4eFF3Lr-23" value="原路退回到付款微信" style="shape=ext;rounded=1;html=1;whiteSpace=wrap;" parent="1" vertex="1">
          <mxGeometry x="110" y="290" width="120" height="80" as="geometry" />
        </mxCell>
        <mxCell id="2uTV4ddxleHJS4eFF3Lr-25" value="是" style="text;html=1;resizable=0;autosize=1;align=center;verticalAlign=middle;points=[];fillColor=none;strokeColor=none;rounded=0;fontSize=14;" parent="1" vertex="1">
          <mxGeometry x="265" y="300" width="30" height="20" as="geometry" />
        </mxCell>
        <mxCell id="2uTV4ddxleHJS4eFF3Lr-27" value="否" style="text;html=1;resizable=0;autosize=1;align=center;verticalAlign=middle;points=[];fillColor=none;strokeColor=none;rounded=0;fontSize=14;" parent="1" vertex="1">
          <mxGeometry x="345" y="400" width="30" height="20" as="geometry" />
        </mxCell>
        <mxCell id="2uTV4ddxleHJS4eFF3Lr-31" style="edgeStyle=orthogonalEdgeStyle;rounded=0;orthogonalLoop=1;jettySize=auto;html=1;entryX=1;entryY=0.5;entryDx=0;entryDy=0;fontSize=14;" parent="1" source="2uTV4ddxleHJS4eFF3Lr-28" target="2uTV4ddxleHJS4eFF3Lr-22" edge="1">
          <mxGeometry relative="1" as="geometry" />
        </mxCell>
        <mxCell id="2uTV4ddxleHJS4eFF3Lr-33" style="edgeStyle=orthogonalEdgeStyle;rounded=0;orthogonalLoop=1;jettySize=auto;html=1;entryX=0.5;entryY=1;entryDx=0;entryDy=0;fontSize=14;" parent="1" source="2uTV4ddxleHJS4eFF3Lr-28" target="2uTV4ddxleHJS4eFF3Lr-23" edge="1">
          <mxGeometry relative="1" as="geometry">
            <Array as="points">
              <mxPoint x="610" y="600" />
              <mxPoint x="170" y="600" />
            </Array>
          </mxGeometry>
        </mxCell>
        <mxCell id="2uTV4ddxleHJS4eFF3Lr-28" value="小于设置天数" style="rhombus;whiteSpace=wrap;html=1;fontSize=14;" parent="1" vertex="1">
          <mxGeometry x="537.5" y="450" width="145" height="80" as="geometry" />
        </mxCell>
        <mxCell id="2uTV4ddxleHJS4eFF3Lr-30" value="设置" style="text;html=1;resizable=0;autosize=1;align=center;verticalAlign=middle;points=[];fillColor=none;strokeColor=none;rounded=0;fontSize=14;" parent="1" vertex="1">
          <mxGeometry x="620" y="400" width="40" height="20" as="geometry" />
        </mxCell>
        <mxCell id="2uTV4ddxleHJS4eFF3Lr-32" value="否" style="text;html=1;resizable=0;autosize=1;align=center;verticalAlign=middle;points=[];fillColor=none;strokeColor=none;rounded=0;fontSize=14;" parent="1" vertex="1">
          <mxGeometry x="485" y="460" width="30" height="20" as="geometry" />
        </mxCell>
        <mxCell id="2uTV4ddxleHJS4eFF3Lr-34" value="是" style="text;html=1;resizable=0;autosize=1;align=center;verticalAlign=middle;points=[];fillColor=none;strokeColor=none;rounded=0;fontSize=14;" parent="1" vertex="1">
          <mxGeometry x="570" y="560" width="30" height="20" as="geometry" />
        </mxCell>
      </root>
    </mxGraphModel>
  </diagram>
</mxfile>
